<svg xmlns="http://www.w3.org/2000/svg" width="1000.029" height="674.021" viewBox="0 0 264.591 178.33473"><path d="M138.547 176.64c-48.236 0-87.479-39.232-87.479-87.466 0-48.243 39.243-87.489 87.479-87.489 48.235 0 87.482 39.246 87.482 87.489 0 48.234-39.247 87.467-87.482 87.467z" style="fill:#b99a80;stroke:none;stroke-width:1.23646"/><path d="M138.547 3.378c47.382 0 85.789 38.41 85.789 85.796 0 47.368-38.407 85.785-85.79 85.785-47.374 0-85.785-38.417-85.785-85.785 0-47.385 38.41-85.796 85.786-85.796m0-3.378c-12.034 0-23.712 2.357-34.709 7.006-10.616 4.492-20.153 10.92-28.341 19.107-8.19 8.186-14.617 17.72-19.11 28.344C51.74 65.458 49.38 77.13 49.38 89.174c0 12.03 2.36 23.715 7.009 34.707 4.492 10.621 10.919 20.154 19.109 28.34 8.188 8.185 17.725 14.615 28.341 19.103 10.997 4.649 22.675 7.01 34.709 7.01 12.035 0 23.714-2.361 34.71-7.01 10.617-4.488 20.156-10.918 28.343-19.103 8.189-8.186 14.615-17.719 19.108-28.34 4.65-10.992 7.01-22.677 7.01-34.707 0-12.044-2.36-23.716-7.01-34.717C216.215 43.834 209.79 34.3 201.6 26.113a88.909 88.909 0 0 0-28.342-19.107C162.26 2.356 150.582 0 138.547 0Z" style="fill:#0e395f;stroke:none;stroke-width:1.23646"/><path d="M201.06 89.174c0 34.522-27.988 62.503-62.51 62.503-34.527 0-62.516-27.981-62.516-62.503 0-34.534 27.99-62.523 62.516-62.523 34.522 0 62.51 27.99 62.51 62.523z" style="fill:#fff;stroke:none;stroke-width:1.23646"/><path d="M75.312 89.174c0-34.934 28.313-63.243 63.238-63.25 34.923 0 63.234 28.316 63.234 63.25 0 34.917-28.311 63.232-63.234 63.232-34.925 0-63.238-28.315-63.238-63.232zm19.546-43.7C83.675 56.66 76.76 72.097 76.76 89.173c0 17.063 6.914 32.506 18.097 43.684 11.182 11.177 26.627 18.101 43.692 18.101s32.506-6.924 43.69-18.101c11.182-11.178 18.095-26.621 18.098-43.684-.002-17.076-6.916-32.514-18.099-43.7-11.183-11.184-26.624-18.096-43.689-18.096s-32.51 6.912-43.692 18.095z" style="fill:#033d6a;stroke:none;stroke-width:1.23646"/><path d="m138.165 61.984 1.5-14.697c.15-1.446 1.416-2.792 2.827-2.98l20.988-2.622c.285-.032.494.17.466.472l-.307 2.992c-.034.293-.285.557-.565.59l-14.777 1.845a2.595 2.595 0 0 0-1.459.737c-.4.413-.644.95-.707 1.599l-.795 7.773c-.164 1.614.898 1.9 1.487 1.83l15.033-1.875c.501-.064.471.34.46.46l-.308 2.98c-.028.274-.291.558-.553.621l-21.035 2.624c-1.384.16-2.406-.89-2.255-2.35M133.645 45.403c1.244-.155 2.138.759 2.01 2.019l-1.812 17.715-6.819.853 1.485-14.517c.12-1.454-1.123-1.279-1.13-1.279l-10.95 1.368-1.626 15.961-7.017.866 2.045-20.012z" style="fill:#033d6a;stroke:none;stroke-width:1.23646"/><path d="m87.686 32.779-.507-.557c-.335-.362-.644-.583-.938-.671-.29-.087-.538-.036-.739.146-.299.28-.436.54-.414.789.024.248.176.524.461.835l3.923 4.282c.234.254.468.393.704.416.234.028.48-.08.735-.312a.86.86 0 0 0 .29-.48.926.926 0 0 0-.042-.505 1.956 1.956 0 0 0-.256-.479 5.878 5.878 0 0 0-.392-.468l-.722-.784 2.03-1.867.975 1.057c.722.787 1.05 1.623.989 2.51-.064.888-.593 1.791-1.59 2.711-.909.836-1.783 1.206-2.621 1.125-.837-.091-1.675-.586-2.51-1.492l-3.266-3.55c-.864-.935-1.28-1.832-1.256-2.69.03-.855.51-1.715 1.438-2.567.89-.821 1.762-1.247 2.609-1.285.848-.036 1.67.377 2.46 1.237l.668.727zM98.908 33.454l-6.26-9.938 2.332-1.47 2.404 3.818 1.622-1.017-2.409-3.817 2.333-1.47 6.26 9.938-2.33 1.472-2.607-4.135-1.617 1.016 2.608 4.135zM109.228 27.395l-1.961-11.863 3.083-1.229 6.722 9.97-2.593 1.031-1.21-1.98-2.005.8.538 2.247zm.37-10.5-.031.01 1.205 5.184 1.486-.59zM122.555 16.102l-.024.039 1.51 6.376-2.568.507-2.275-11.526 2.787-.552 3.359 6.028.047-.007-1.531-6.385 2.566-.51 2.272 11.528-2.768.545zM139.258 21.025l-.136-1.046h-.033c-.278.494-.59.84-.936 1.036-.347.198-.824.3-1.431.307-.56.007-1.044-.078-1.442-.256a2.43 2.43 0 0 1-.973-.773 3.32 3.32 0 0 1-.54-1.176 6.872 6.872 0 0 1-.171-1.505l-.06-4.82c-.013-1.276.272-2.219.867-2.84.597-.616 1.521-.935 2.786-.95 1.212-.012 2.141.252 2.79.79.648.539.981 1.397.996 2.568l.01.874-2.759.03-.007-.639c-.005-.544-.065-.93-.186-1.16-.118-.228-.347-.342-.693-.35-.408.008-.683.11-.834.307-.149.2-.22.51-.215.93l.069 5.808c.002.348.09.606.258.78.167.18.427.263.77.258.222-.005.397-.048.532-.13a.77.77 0 0 0 .294-.33c.059-.14.1-.29.11-.45.015-.164.021-.367.019-.608l-.01-.924-.988.013-.028-2.114 3.746-.043.076 6.39zM154.65 19.343l.035.007 2.435-7.916 2.568.505-4.19 11.15-3.045-.604.77-8.274-.03-.007-2.494 7.941-2.994-.592.333-11.907 2.614.514-.78 8.256.037-.024 2.677-7.854 2.613.517zM170.06 24.529c-.543 1.27-1.202 2.088-1.98 2.468-.772.38-1.782.304-3.02-.223-1.244-.536-2.008-1.219-2.274-2.052-.27-.829-.135-1.875.402-3.13l1.88-4.39c.443-1.041 1.085-1.71 1.92-2.007.842-.302 1.81-.215 2.915.26 1.107.47 1.829 1.111 2.178 1.916.346.809.298 1.729-.143 2.77zm-.73-5.303c.089-.21.158-.4.209-.568.048-.167.07-.326.07-.488a.864.864 0 0 0-.124-.447c-.084-.138-.226-.246-.429-.333a.895.895 0 0 0-.531-.075.841.841 0 0 0-.416.222 2.184 2.184 0 0 0-.319.402 4.2 4.2 0 0 0-.26.517l-1.9 4.435a4.968 4.968 0 0 0-.194.551 2.276 2.276 0 0 0-.08.545c0 .18.042.343.12.496.087.145.223.26.416.345.193.08.372.104.537.058a.815.815 0 0 0 .421-.253 2.47 2.47 0 0 0 .316-.428c.091-.16.178-.34.264-.544zM178.677 26.243l-.043.007-3.425 5.586-2.178-1.447 6.518-9.778 2.357 1.572-1.866 6.643.036.028 3.42-5.608 2.177 1.448-6.515 9.777-2.344-1.56zM90.316 151.936l5.96-8.432 2.565 1.805c.4.284.731.569 1.002.865.267.297.461.619.587.94.123.346.149.705.08 1.076-.07.383-.25.779-.542 1.187-.275.395-.6.68-.972.878-.37.21-.784.272-1.241.222l-.015.025c.137.297.229.569.28.791.046.223.059.433.035.63-.026.211-.09.421-.199.631-.106.223-.253.47-.447.73-.589.84-1.243 1.298-1.966 1.385-.724.086-1.504-.173-2.337-.755zm3.055-.123c.051.037.112.086.178.136.284.185.494.309.631.395a.9.9 0 0 0 .428.111c.142 0 .29-.061.439-.173.147-.111.314-.297.5-.556.159-.235.256-.433.287-.606a.773.773 0 0 0-.048-.47 1.34 1.34 0 0 0-.284-.396c-.131-.11-.314-.26-.55-.445l-.113-.074zm2.544-3.599c.033.025.097.075.188.124.439.284.777.408.996.408.229 0 .491-.21.793-.63.248-.359.309-.643.18-.866-.127-.235-.424-.507-.887-.84zM98.573 157.525l6.798-8.099 2.59 1.348-2.812 10.2-2.172-1.137.628-1.941-1.682-.89-1.191 1.644zm7.224-5.762-.029-.014L103 155.52l1.243.656zM111.33 159.75l-.254.693c-.116.322-.142.594-.08.84.062.236.263.409.598.533.251.098.475.074.674-.062.202-.148.349-.346.449-.618.119-.334.124-.619.015-.878-.115-.26-.307-.557-.591-.903a1.098 1.098 0 0 0-.141-.173c-.32-.383-.578-.73-.778-1.014a4.364 4.364 0 0 1-.47-.89 2.917 2.917 0 0 1-.172-1.039c.005-.358.08-.742.23-1.15.333-.89.836-1.483 1.512-1.768.678-.272 1.467-.247 2.36.087.923.333 1.539.865 1.848 1.57.312.717.302 1.509-.021 2.374l-.058.124c-.017.05-.035.086-.048.136l-2.094-.78.046-.11c.056-.198.106-.359.135-.495.03-.136.046-.272.043-.42a.729.729 0 0 0-.111-.371.671.671 0 0 0-.346-.272.91.91 0 0 0-.615-.05.861.861 0 0 0-.412.396.736.736 0 0 1-.03.086c-.02.025-.029.038-.039.075a.935.935 0 0 0-.037.618c.062.198.178.42.35.668.131.173.341.445.634.791.5.606.829 1.063.976 1.36.19.371.284.754.29 1.162.004.42-.1.903-.305 1.46-.345.94-.858 1.557-1.544 1.866-.685.322-1.501.297-2.445-.05-.5-.184-.917-.407-1.249-.68a2.71 2.71 0 0 1-.73-.877 2.233 2.233 0 0 1-.245-.99 2.584 2.584 0 0 1 .165-.988l.385-1.039zM117.589 165.5l2.366-10.065 5.404 1.274-.47 2.015-3.046-.717-.436 1.843 2.948.704-.474 2.003-2.95-.692-.51 2.164 3.205.766-.473 2.016zM127.04 167.479l1.07-10.275 3.125.321c.485.062.915.148 1.295.272.378.124.704.31.978.544.27.223.471.52.591.89.124.359.16.792.108 1.299-.05.47-.19.89-.415 1.236-.226.359-.55.618-.978.804v.024c.264.198.475.384.626.557.156.173.268.346.345.544a1.8 1.8 0 0 1 .135.643c.01.235 0 .519-.033.853-.106 1.014-.456 1.73-1.044 2.164-.589.42-1.392.58-2.406.482zm2.607-1.595c.061 0 .133.014.214.024.34.025.587.037.748.037.158-.014.299-.037.422-.111a.722.722 0 0 0 .303-.371c.072-.16.129-.408.16-.73.028-.272.017-.494-.039-.655a.76.76 0 0 0-.274-.396 1.037 1.037 0 0 0-.44-.197 5.04 5.04 0 0 0-.694-.124l-.137-.014zm.456-4.39a.88.88 0 0 0 .217.014c.526.025.886-.014 1.08-.124.197-.111.32-.42.376-.94.042-.432-.043-.716-.265-.852-.221-.136-.616-.223-1.184-.285zM136.985 168.307l1.986-10.386 2.919-.074 2.515 10.275-2.45.061-.395-2.003-1.902.05-.237 2.015zm3.494-8.544h-.026l-.582 4.65 1.403-.038zM147.804 167.75l-1.528-10.213 2.397-.358 1.226 8.173 2.926-.445.307 2.052zM156.592 166.217l-2.672-9.978 2.343-.618 2.137 7.975 2.862-.766.533 2.003zM171.654 153.544l-.295-.594c-.195-.396-.406-.655-.632-.804-.222-.136-.444-.16-.654-.049-.324.16-.504.346-.544.556-.041.223.02.495.186.816l2.27 4.588c.14.26.302.445.496.519.192.074.423.05.698-.086a.8.8 0 0 0 .362-.334.836.836 0 0 0 .089-.445 1.659 1.659 0 0 0-.101-.458 5.49 5.49 0 0 0-.217-.494l-.419-.841 2.164-1.088.57 1.137c.42.841.493 1.632.229 2.362-.272.73-.939 1.372-2.008 1.904-.97.482-1.796.581-2.486.31-.686-.273-1.272-.891-1.76-1.868l-1.897-3.796c-.502-1.001-.638-1.854-.405-2.572.234-.717.845-1.323 1.838-1.83.956-.482 1.793-.618 2.519-.445.722.173 1.316.73 1.776 1.645l.39.779zM180.165 156.474l-5.718-8.593 2.018-1.348 4.574 6.887 2.468-1.644 1.142 1.73zM180.82 143.491l1.84-1.57 5.07 5.923c.19.21.383.346.583.395.204.037.42-.037.661-.235.213-.185.305-.408.276-.643a1.204 1.204 0 0 0-.295-.655l-5.028-5.873 1.841-1.57 4.867 5.675c.3.346.526.705.686 1.051.156.359.23.717.218 1.1-.014.371-.13.755-.35 1.15-.218.384-.556.78-1.016 1.175-.795.692-1.576 1.014-2.336.99-.76-.025-1.475-.434-2.152-1.225zM195.332 144.32l-7.693-6.9 2.096-2.337c.329-.358.653-.655.975-.89.33-.223.664-.396 1.012-.47a1.968 1.968 0 0 1 1.068.037c.367.124.74.347 1.114.68.36.322.615.68.767 1.064.157.396.18.816.073 1.261l.023.014c.314-.087.583-.16.81-.185.233-.014.446 0 .646.049.195.05.396.136.6.272.2.124.423.297.672.52.757.68 1.137 1.397 1.137 2.114.005.73-.34 1.471-1.018 2.238zm-3.049-5.985c.034-.037.077-.099.139-.173.327-.408.508-.73.533-.952.025-.223-.155-.507-.544-.853-.32-.284-.603-.383-.838-.284-.242.111-.552.37-.928.79zm3.282 2.943c.043-.05.095-.099.15-.16.22-.26.375-.458.462-.582a.983.983 0 0 0 .166-.408.688.688 0 0 0-.118-.458 2.576 2.576 0 0 0-.503-.568c-.203-.186-.393-.31-.56-.359a.777.777 0 0 0-.475 0c-.146.05-.284.124-.42.235-.135.124-.302.284-.506.494l-.092.1zM79.932 39.366l.939 2.748 2.434-1.587-1.043 2.71 2.886.346-2.544 1.406 1.986 2.119-2.85-.56.16 2.903-1.827-2.26-1.742 2.326.053-2.906-2.829.664 1.91-2.192-2.595-1.312 2.874-.454-1.147-2.67 2.492 1.501zM189.436 30.77l.942 2.75 2.434-1.587-1.046 2.711 2.889.344-2.547 1.407 1.988 2.118-2.851-.557.16 2.903-1.828-2.26-1.741 2.324.054-2.907-2.83.664 1.91-2.19-2.595-1.314 2.873-.451-1.143-2.671 2.487 1.499zM86.584 136.753l.941 2.757 2.436-1.595-1.047 2.708 2.887.346-2.545 1.41 1.987 2.126-2.85-.569.162 2.906-1.83-2.263-1.738 2.325.054-2.906-2.831.668 1.909-2.189-2.593-1.31 2.871-.458-1.145-2.67 2.49 1.496zM201.448 124.388l.947 2.745 2.436-1.583-1.045 2.708 2.886.346-2.545 1.41 1.987 2.114-2.852-.556.16 2.906-1.827-2.263-1.741 2.324.053-2.905-2.832.655 1.911-2.189-2.593-1.31 2.874-.445-1.146-2.683 2.489 1.508z" style="fill:#0e395f;stroke:none;stroke-width:1.23646"/><path d="m109.458 37.69 3.438.742s.517 3.071 1.658 3.8l1.237-.859c-.9-.64-1.598-3.893-1.598-3.893s-2.198-.285-3.181-.693zM113.74 35.2c.713.673 3.061 1.152 3.061 1.152s.43 3.05 1.627 3.694l1.282-.786c-1.148-.73-1.663-3.82-1.663-3.82s-2.246-.444-3.038-1.027zM109.395 41.1s.435 2.552 1.415 3.91c.348-.277.75-.594 1.14-.867-.967-1.49-1.1-4.127-1.1-4.127s-2.56-.365-3.787-.563c-.412.307-1.014.915-1.014.915zM105.711 44.085s.53 2.866 1.52 4.221c.337-.284.733-.647 1.125-.93-.962-1.487-1.23-4.35-1.23-4.35s-2.46-.356-3.681-.555c-.424.307-.78.554-1.017.916zM117.673 33.022c.722.432 2.939.826 2.939.826s.768 3.12 1.854 3.743l1.358-.717c-1.461-.452-1.893-3.783-1.893-3.783s-1.99-.218-2.614-.725c-.539.228-1.098.368-1.644.656zM98.336 47.125c1.208.327 3.452.43 3.452.43s.512 2.598 1.79 4.197l1.1-1.178c-.93-1.237-1.562-4.229-1.562-4.229s-2.348-.116-3.58-.264zM121.931 31.186c.523.54 3.545.974 3.545.974s.09 2.322 1.4 2.74c.352-.212 1.246-.586 1.246-.586-1.308-.666-1.167-3.04-1.167-3.04s-2.991-.341-3.653-.742c-.452.239-.93.345-1.37.654zM95.306 51.018l3.164.47s.388 2.988 1.36 4.133l1.024-1.232c-.807-1.158-1.089-4.204-1.089-4.204s-2.324-.133-3.385-.326c-.396.449-.69.72-1.074 1.159zM92.142 54.83c.809.38 3.023.61 3.023.61s.778 3.936 1.639 4.491l.965-1.349c-1.067-1.077-1.537-4.504-1.537-4.504s-2.052.086-3.08-.278zM91.967 59.832s.411 3.203 1.61 4.328l.917-1.31c-.767-1.006-1.35-4.288-1.35-4.288l-3.2-.24-.953 1.218zM86.068 64.444l2.923.124s.875 2.992 1.852 4.105c.34-.445.548-1.088.85-1.533-1.147-1.36-1.722-3.858-1.722-3.858l-3.152-.16zM83.382 69.7l2.849-.124s-.114 2.782 1.72 4.5c0 0 .51-1.137.728-1.669-1.141-1.36-1.171-4.167-1.171-4.167l-3.555.148zM80.537 75.375l3.072.21s.064 2.88 1.896 4.612c0 0 .508-1.138.726-1.67-1.141-1.36-1.438-4.315-1.438-4.315l-3.687-.136zM125.476 29.262s2.233-.464 3.27-.408c.371.021 2.383.5 2.383.5l2.018 2.103-1.445.703-1.841-2.173s-3.51-.773-4.385-.725zM132.39 28.393l3.85 1.417 1.163-.297-1.815-1.087-3.393-.026zM150.586 146.113c1.118.754 1.947 2.312 1.947 2.312s2.702-.606 3.817-.248l.397-.989c-.947-.544-3.6-.024-3.6-.024s-1.391-1.88-2.19-2.053zM152.306 143.157c1.12.755 1.835 2.337 1.835 2.337s2.812-.63 3.93-.272l.398-.976c-.951-.557-3.716-.025-3.716-.025s-1.275-1.892-2.072-2.065zM153.147 139.708c1.453.803 2.63 2.893 2.63 2.893s3.257-1.187 4.667-.866l.406-1.236c-1.22-.569-4.438.495-4.438.495s-1.896-2.412-2.898-2.547zM154.448 136.208c1.656.693 3.197 3.203 3.197 3.203s3.321-1.99 4.872-1.818l.306-1.36c-1.375-.47-4.664 1.385-4.664 1.385s-2.359-2.757-3.456-2.794zM155.87 131.98c1.684.618 3.348 3.103 3.348 3.103s3.238-2.077 4.791-1.978l.268-1.36c-1.393-.408-4.605 1.545-4.605 1.545s-2.49-2.695-3.591-2.683zM157.192 127.071c1.72.532 3.513 2.968 3.513 2.968s3.136-2.201 4.693-2.177l.225-1.372c-1.416-.321-4.533 1.731-4.533 1.731s-2.64-2.584-3.747-2.522zM158.124 122.496c1.745.408 3.718 2.757 3.718 2.757s2.99-2.361 4.544-2.448l.155-1.372c-1.431-.223-4.42 1.99-4.42 1.99s-2.82-2.435-3.93-2.312zM158.889 118.577c1.778.234 3.985 2.423 3.985 2.423s2.76-2.597 4.298-2.844l.045-1.372c-1.448-.087-4.22 2.374-4.22 2.374s-3.066-2.189-4.164-1.954zM159.183 114.323c1.793.112 4.157 2.176 4.157 2.176s2.6-2.72 4.121-3.066l-.022-1.373c-1.45.025-4.078 2.61-4.078 2.61s-3.222-2.016-4.305-1.72zM159.246 109.897c1.797.024 4.27 2.027 4.27 2.027s2.497-2.794 3.996-3.214l-.058-1.36c-1.448.086-3.972 2.732-3.972 2.732s-3.334-1.892-4.41-1.545zM159.157 105.396c1.796-.05 4.364 1.892 4.364 1.892s2.412-2.844 3.896-3.314l-.09-1.36c-1.443.136-3.888 2.844-3.888 2.844s-3.427-1.793-4.494-1.41zM158.924 100.747c1.791-.124 4.457 1.756 4.457 1.756s2.323-2.881 3.785-3.413l-.113-1.348c-1.439.186-3.803 2.943-3.803 2.943s-3.515-1.694-4.576-1.274zM158.532 96.394c1.789-.136 4.495 1.756 4.495 1.756s2.319-2.868 3.773-3.412l-.098-1.348c-1.438.21-3.798 2.943-3.798 2.943s-3.558-1.694-4.62-1.274zM157.94 91.82c1.79-.087 4.577 1.916 4.577 1.916s2.496-2.634 3.971-3.14l-.03-1.484c-1.445.173-4.012 2.806-4.012 2.806s-3.478-1.928-4.553-1.533zM158.28 86.738c1.776-.05 4.411 1.904 4.411 1.904s2.487-2.597 3.957-3.067l-.052-1.446c-1.428.136-3.973 2.67-3.973 2.67s-3.326-1.866-4.394-1.496zM158.425 81.334c1.76.111 4.11 2.226 4.11 2.226s2.662-2.386 4.155-2.72l.033-1.41c-1.424.014-4.127 2.263-4.127 2.263s-3.036-2.065-4.128-1.793zM159.218 75.548c1.664.58 3.305 3.14 3.305 3.14s3.15-1.632 4.68-1.558l.347-1.335c-1.376-.359-4.512 1.076-4.512 1.076s-2.315-2.671-3.44-2.708zM160.987 70.664c1.634.68 3.025 3.276 3.025 3.276s3.223-1.459 4.748-1.298l.38-1.286c-1.35-.457-4.53.767-4.53.767s-2.065-2.733-3.184-2.844zM162.758 65.767c1.591.792 2.741 3.413 2.741 3.413s3.296-1.286 4.817-1.014l.42-1.249c-1.329-.544-4.556.445-4.556.445s-1.807-2.782-2.929-2.955zM165.065 60.876c1.557.894 2.458 3.556 2.458 3.556s3.368-1.113 4.888-.742l.456-1.212c-1.307-.631-4.574.136-4.574.136s-1.561-2.846-2.679-3.09zM167.563 56.389c1.638.732 2.418 3.161 2.418 3.161s3.35-.529 4.893-.321l.7-1.391c-1.364-.492-4.842.056-4.842.056s-1.482-2.717-2.618-2.853zM170.637 51.787c1.575.82 2.52 3.09 2.52 3.09s2.65-.133 4.163.164l.788-1.356c-1.316-.573-4.048-.489-4.048-.489s-1.76-2.207-2.792-2.615zM173.425 47.558c1.507.925 2.144 3.197 2.144 3.197s2.533-.268 4.013.13l.907-1.398c-1.267-.652-3.905-.347-3.905-.347s-1.408-2.415-2.503-2.686zM175.917 44.401c1.44 1.014 2.18 2.95 2.18 2.95s2.227.182 3.675.673l.812-1.084c-1.217-.737-3.656-.866-3.656-.866s-1.255-2.34-2.328-2.684z" style="fill:#b99a80;stroke:none;stroke-width:1.23646"/><path d="M92.707 74.657c-9.146 1.756-17.7 10.968-18.888 20.711 0 0-4.34 35.783-4.372 36.08-.037.297.04.47.532.42.462-.049 20.103-2.126 22.385-2.361.144-.025.232-.136.253-.334.542-4.402 6.775-55.48 6.78-55.579.006-.099-.127-.148-.218-.136-.094.025-3.393.618-6.472 1.2z" style="fill:#b99a80;stroke:none;stroke-width:1.23646"/><path d="M91.065 77.291c-7.385 2.176-14.24 10.275-15.212 18.275 0 0-4.079 33.459-4.101 33.743-.026.284.184.359.351.346.164-.024 16.97-1.793 18.55-1.953.077-.014.123-.062.133-.161.356-2.943 6.261-51.474 6.27-51.573.01-.099-.103-.21-.239-.173-.132.025-2.82.63-5.752 1.496z" style="fill:#0e395f;stroke:none;stroke-width:1.23646"/><path d="M93.323 78.763c-7.876 1.693-14.556 9.013-15.532 17.013 0 0-3.789 31.307-3.827 31.493-.039.185.03.297.308.272.264-.037 13.332-1.41 14.658-1.558.073 0 .112-.037.124-.124.312-2.584 5.724-47.134 5.736-47.22.013-.099-.06-.186-.18-.161l-1.287.284z" style="fill:#345587;stroke:none;stroke-width:1.23646"/><path d="m93.348 81.495.206-1.67c-7.376 1.596-13.762 8.532-14.683 16.087l-3.697 30.43 1.415-.136 3.529-29.008c.84-7.616 6.482-13.576 13.23-15.703z" style="fill:#fff;stroke:none;stroke-width:1.23646"/><path d="M119.644 71.702c-10.492 1.1-19.732 10.362-21.035 21.057 0 0-4.407 36.253-4.418 36.327-.011.087.064.174.19.161.086-.014 20.343-2.102 22.754-2.361.152-.014.25-.173.266-.272.01-.112 4.378-36.043 4.378-36.043.207-.878.61-1.941 1.372-2.2l6.208-.656s-4.542 37.328-4.612 37.873c-.041.296.103.482.413.457 3.274-.346 22.311-2.35 22.402-2.362.097-.014.327-.111.343-.284.494-4.018 6.661-54.7 6.685-54.985.025-.285-.062-.396-.33-.359-.274.025-34.616 3.648-34.616 3.648z" style="fill:#b99a80;stroke:none;stroke-width:1.23646"/><path d="M119.719 73.83c-9.356.988-17.913 9.57-19.08 19.115 0 0-4.11 33.817-4.12 33.928-.014.112.02.198.156.186.128-.014 16.648-1.756 18.677-1.966.133-.014.222-.161.232-.26l4.184-34.41c.51-2.288 1.578-3.636 3.104-4.007l8.817-.952s-4.545 37.588-4.62 37.898c-.07.321.092.482.368.457 2.79-.297 18.324-1.941 18.43-1.954.113 0 .206-.086.227-.21.413-3.412 6.175-50.497 6.175-50.806.002-.31-.265-.42-.465-.396-.2.014-32.085 3.376-32.085 3.376z" style="fill:#0e395f;stroke:none;stroke-width:1.23646"/><path d="M119.827 75.87c-8.457.89-16.197 8.654-17.245 17.297 0 0-3.826 31.419-3.84 31.567-.014.148.007.223.143.21.12-.014 12.958-1.372 14.738-1.558.134-.014.21-.123.23-.26.015-.06 3.997-32.864 3.997-32.864.912-4.217 3.395-5.391 4.833-5.713l10.648-1.137a.413.413 0 0 1 .392.136.5.5 0 0 1 .12.408s-4.543 37.056-4.55 37.328c-.014.272.109.446.407.409a3309.4 3309.4 0 0 1 14.377-1.509c.208-.014.28-.21.293-.31.358-2.942 5.688-46.849 5.712-46.972.022-.136-.092-.21-.216-.21-.12.024-30.04 3.177-30.04 3.177z" style="fill:#345587;stroke:none;stroke-width:1.23646"/><path d="m121.184 78.243 27.504-2.905.174-1.435-28.92 3.042c-7.983.853-15.288 8.185-16.28 16.346l-3.703 30.442 1.42-.149 3.525-28.995c.995-8.173 8.299-15.505 16.28-16.346z" style="fill:#fff;stroke:none;stroke-width:1.23646"/><path d="M135.741 84.08a1.443 1.443 0 0 0-.83-.433c.024.148.029.296.01.445l-4.44 36.426 1.416-.148 4.268-34.992a1.543 1.543 0 0 0-.424-1.299z" style="fill:#fff;stroke:none;stroke-width:1.23646"/><path d="M70.482 65.248c-2.55-2.621-5.966-4.005-9.874-4.005-.577 0-36.538 3.758-36.538 3.758C6.946 66.806 2.092 80.135.725 87.912-.445 94.59.135 99.3.209 100.623c.012.223.089.495.24.532.206.074.475-.037.827-.445.382-.42 6.762-8.334 7.713-9.373.945-1.038 5.026-5.922 12.98-6.763l26.979-2.844c-.057.569-3.534 31.048-3.534 31.048-.607 4.018-3.26 6.503-8.2 7.394 0 0 4.24-36.884 4.252-36.958.012-.062-.006-.136-.11-.124-.106.014-6.106 1.051-6.106 1.051-9.457 2.04-17.478 10.844-18.65 20.476l-2.058 17.929c-5.684.568-9.406.049-11.744-.124-.785-.062-1.53-.161-2.171-.235-.259-.037-.451.21-.312.433.957 1.483 3.253 5.551 6.225 8.704 4.017 4.254 10.85 6.517 17.177 6.294 6.327-.223 18.05-1.558 18.05-1.558 25.958-2.745 26.952-11.734 28.003-21.255.091-.828 4.425-37.464 4.425-37.464.579-4.736-.74-9.039-3.713-12.093z" style="fill:#b99a80;stroke:none;stroke-width:1.23646"/><path d="M68.978 66.83c-2.51-2.584-6.014-3.795-10.052-3.362L24.151 67.14C12.023 68.413 5.398 76.809 3.414 83.61c-1.242 4.24-1.467 6.837-1.614 8.568 0 0-.25 3.97-.19 5.206.01.173-.008.247.094.309.055.024.14 0 .256-.124.653-.717 2.287-2.98 2.678-3.474 1.325-1.657 3.763-4.76 5.39-6.17 2.013-1.731 6.236-4.736 11.871-5.33l28.077-2.967c.499-.05.814.05.862.099.427.445.18 1.286.18 1.286l-3.571 31.95c-.776 5.243-4.762 8.395-12.278 9.36 0 0 4.068-36.476 4.077-36.624.013-.173-.085-.26-.275-.235-.19.05-3.426.705-3.426.705-8.573 1.855-15.842 9.817-16.91 18.547l-1.79 15.629-.498 3.944-1.027.111c-2.059.223-4.677.371-9.894 0-.91-.061-1.363-.16-1.46-.024-.088.124-.033.297.224.73.108.185 2.167 4.08 6.633 7.356 2.763 2.028 7.158 3.166 12.712 3.166 3.04 0 13.994-1.113 13.994-1.113 21.712-2.288 28.314-5.181 30.23-19.895l4.408-37.316c.507-4.13-.627-7.852-3.189-10.473z" style="fill:#0e395f;stroke:none;stroke-width:1.23646"/><path d="M67.558 68.314c-2.087-2.139-5.18-3.165-8.523-2.806l-34.778 3.66C6.519 71.047 4.34 87.8 4.217 88.468c-.122.68-.405 3.389-.428 3.587-.028.185.05.271.207.061.156-.197 2.173-2.856 2.173-2.856.053-.074 5.786-7.505 15.63-8.544l28.079-2.967c1.072-.112 1.88.098 2.41.655 1.046 1.1.722 3.289.385 5.601-.086.556-3.289 29.205-3.289 29.205-1.354 9.385-11.714 10.473-15.132 10.832l-.978.11S37.211 87.9 37.221 87.74c.009-.16-.147-.21-.298-.185-.147.037-1.11.247-1.11.247-7.879 1.694-14.557 9.014-15.533 17.014l-2.63 20.97c-1.944.185-4.065.359-5.89.359-1.102 0-4.559-.235-4.812-.26-.255-.025-.318.111-.165.284.15.186 1.243 1.558 1.243 1.558 3.59 4.254 8.9 6.467 15.16 6.158 6.262-.31 10.834-.94 15.31-1.336 13.029-1.15 25.31-2.473 27.33-17.978l4.415-37.329c.43-3.536-.524-6.701-2.683-8.927z" style="fill:#345587;stroke:none;stroke-width:1.23646"/><path d="m19.866 128.085 2.739-21.836c.862-7.085 6.509-13.613 13.28-15.728.113-1.137.16-1.657.16-1.657-7.38 1.583-13.76 8.532-14.685 16.087l-2.739 21.836c-3.672.37-7.542.432-9.763.247a20.282 20.282 0 0 0 1.243 1.286c2.332.42 6.09.124 9.765-.235zM25.616 71.542l34.778-3.673c2.725-.284 5.182.408 7.014 1.942a6.51 6.51 0 0 0-.63-.73c-1.876-1.929-4.587-2.82-7.63-2.498l-34.775 3.673C7.29 72.06 5.298 88.592 5.298 88.592s.726-.952 2.11-2.238c1.638-4.97 6.177-13.539 18.208-14.812zM35.611 126.428c3.54-.383 14.612-1.533 16.093-11.759 0 0 3.205-28.66 3.289-29.205.38-2.584.737-5.02-.672-6.516a3.105 3.105 0 0 0-.732-.556c.786 1.483.484 3.585.16 5.774-.083.556-3.289 29.205-3.289 29.205-1.478 10.226-12.554 11.388-16.091 11.759l-1.08.099-.157 1.434z" style="fill:#fff;stroke:none;stroke-width:1.23646"/><path d="M174.9 65.903c-10.49 1.1-19.728 10.35-21.026 21.045 0 0-4.35 35.808-4.38 36.067-.033.26-.047.483.307.458.349-.025 34.626-3.66 34.626-3.66 10.491-1.1 19.726-10.35 21.036-21.057 0 0 4.399-36.105 4.404-36.278.011-.16-.085-.26-.245-.234-.164.014-34.722 3.66-34.722 3.66zm7.466 34.448c-.175 1.138-.578 2.547-1.535 2.82l-6.1.642 2.241-18.448c.17-1.137.578-2.547 1.533-2.819l6.101-.643z" style="fill:#b99a80;stroke:none;stroke-width:1.23646"/><path d="M174.983 68.03c-9.362.99-17.918 9.57-19.08 19.116 0 0-4.082 33.669-4.104 33.805-.025.148.04.321.245.296.201-.024 32.316-3.412 32.316-3.412 9.35-.977 17.908-9.558 19.076-19.103 0 0 4.085-33.608 4.105-33.818.021-.197-.172-.297-.352-.272a65347.2 65347.2 0 0 0-32.206 3.388zm6.15 37.242-8.722.928 2.533-20.872c.28-1.867 1.087-4.204 3.26-4.723l8.734-.927-2.547 20.871c-.278 1.867-1.084 4.204-3.258 4.723z" style="fill:#0e395f;stroke:none;stroke-width:1.23646"/><path d="M175.089 70.07c-8.459.89-16.195 8.643-17.244 17.298 0 0-3.806 31.307-3.824 31.468-.014.173.155.297.303.284.15-.014 29.937-3.165 29.937-3.165 8.455-.878 16.19-8.643 17.247-17.286 0 0 3.812-31.455 3.833-31.591.022-.136-.102-.198-.22-.186-.112.025-30.032 3.178-30.032 3.178zm-4.312 38.343c-.113.024-.25.014-.389-.136-.096-.099-.139-.235-.12-.408l2.756-22.652c.672-4.612 3.1-6.071 4.967-6.48l.146-.024 10.434-1.1a.463.463 0 0 1 .389.124c.099.111.147.26.126.42l-2.737 22.516-.026.148c-.667 4.575-3.051 6.046-4.96 6.48z" style="fill:#345587;stroke:none;stroke-width:1.23646"/><path d="m190.165 78.293-2.762 22.689c-.81 5.502-4.024 6.998-5.87 7.394L170.89 109.5c-.154.014-.301 0-.449-.025.046.322.18.631.418.854.325.346.792.506 1.278.457l10.634-1.113c1.851-.395 5.065-1.892 5.871-7.394l2.769-22.701a1.565 1.565 0 0 0-.427-1.299 1.556 1.556 0 0 0-.833-.432c.02.148.035.284.013.445z" style="fill:#fff;stroke:none;stroke-width:1.23646"/><path d="m176.445 72.444 27.502-2.905.174-1.435-28.918 3.042c-7.982.84-15.287 8.173-16.28 16.346l-3.697 30.442 1.422-.149 3.518-28.995c.994-8.173 8.302-15.505 16.28-16.346z" style="fill:#fff;stroke:none;stroke-width:1.23646"/><path d="M250.428 74.979c5.64-.594 10.036-4.736 12.058-11.363l2.102-6.883s.052-.276-.255-.245c-.307.028-33.665 3.552-33.665 3.552-10.489 1.104-19.723 10.327-21.024 21.01 0 0-1.014 8.705-1.038 8.927-.026.21.081.272.179.284l27.367 4.316-.143.754c-.165.84-14.443 2.943-21.163 5.02-16.725 5.168-20.038 17.582-20.123 17.928-.088.347-.067.483.13.458.192-.014 46.289-4.884 46.289-4.884 16.661-1.756 17.3-9.607 17.645-13.824.033-.408.818-7.27.933-9.187.311-5.106-3.423-9.693-8.88-10.905-2.222-.495-11.216-2.065-16.99-3.054.146-.099.268-.148.347-.173z" style="fill:#b99a80;stroke:none;stroke-width:1.23646"/><path d="m233.935 74.744 16.421-1.743c4.115-.433 7.883-3.87 9.433-7.74.595-1.484 1.677-5.36 1.928-6.25.032-.117-.061-.17-.208-.157-.146.018-30.766 3.315-30.766 3.315-9.354.99-17.911 9.558-19.072 19.091 0 0-.788 7.036-.8 7.11-.01.074.035.111.074.111.035.014 27.488 4.674 27.488 4.674s-.2 1.138-.474 2.918c-.264 1.756-12.124 3.178-16.922 4.55-7.258 2.078-14.534 3.883-21.288 11.932-1.03 1.237-1.815 2.992-2.233 3.635-.094.149-.038.334.18.31.22-.025 44.084-4.699 44.084-4.699 9.008-.952 13.957-4.365 14.714-10.164l.095-.692c.318-2.424.918-6.937 1.093-10.003.252-4.08-2.93-7.913-7.401-8.915-2.695-.594-15.564-2.794-19.426-3.462.49-2.151 1.545-3.437 3.08-3.82z" style="fill:#0e395f;stroke:none;stroke-width:1.23646"/><path d="m233.744 72.877 16.513-1.743c5.282-.557 7.546-5.466 8.43-8.347 0 0 .37-1.26.396-1.384.02-.129-.067-.162-.234-.15-.167.021-27.996 2.956-27.996 2.956-8.46.89-16.192 8.643-17.243 17.298 0 0-.633 5.416-.638 5.49-.005.062.03.112.084.112.057.014 27.485 4.884 27.485 4.884-.015.16-.043.383-.064.531l-.33 2.659c-.61 3.746-3.286 4.266-14.388 6.33-2.621.483-18.008 3.97-23.354 10.77-.586.742-.98 1.335-1.203 1.682-.152.235-.085.346.16.321 2.856-.31 33.51-3.61 37.664-4.056 9.686-1.013 14.48-2.67 15.551-9.298.61-3.82 1.007-7.171 1.16-9.94.196-3.166-2.368-6.158-5.965-6.962-3.097-.68-20.433-3.635-20.605-3.66-.155-.025-.495-.198-.456-.544.535-4.921 3.023-6.504 5.033-6.949z" style="fill:#345587;stroke:none;stroke-width:1.23646"/><path d="m232.213 66.583 24.902-2.633a18.27 18.27 0 0 0 .529-1.472l-26.673 2.807c-7.989.84-15.288 8.173-16.282 16.346l-.53 4.575 1.367.235.407-3.512c1.065-8.643 8.294-15.505 16.28-16.346zM230.225 82.732c1.8.296 17.67 3.017 20.558 3.66a7.004 7.004 0 0 1 2.9 1.36 6.647 6.647 0 0 0-4.142-2.659c-3.03-.593-18.757-3.35-20.558-3.647a.27.27 0 0 0-.094-.025c.111.705.712 1.2 1.336 1.31zM242.464 96.654l.308-2.473c.101-.828.311-1.756-.497-1.916l-.66-.124c-.018.247-.394 3.215-.394 3.215-.788 4.834-2.768 4.97-15.273 7.22-4.785.879-19.494 5.453-22.63 10.3.917-.098 1.8-.185 2.66-.272 4.819-4.24 16.948-7.962 21.215-8.729 12.501-2.263 14.486-2.399 15.27-7.22z" style="fill:#fff;stroke:none;stroke-width:1.23646"/></svg>