<svg xmlns="http://www.w3.org/2000/svg" xml:space="preserve" width="1000px" height="1000px" x="0px" y="0px" viewBox="0 0 1000 1000"><linearGradient id="a" x1="0" x2="1000" y1="500" y2="500" gradientUnits="userSpaceOnUse"><stop offset="0" style="stop-color:#00a495"/><stop offset="1" style="stop-color:#13ad65"/></linearGradient><path fill="url(#a)" fill-rule="evenodd" d="M1000 899.999c0 55.23-44.773 100-100 100H100c-55.227 0-100-44.77-100-100v-800C0 44.772 44.773.001 100 .001h800c55.227 0 100 44.771 100 99.998v800z" clip-rule="evenodd"/><path fill="#FFF" d="M725.603 521.664h-27.844V744.43A25.468 25.468 0 0 1 672.185 770H573.31c-8.527 0-15.914-7.391-15.914-15.914V594.969c0-7.953-6.25-14.773-14.773-14.773h-85.241c-7.957 0-14.773 6.25-14.773 14.773v159.117c0 8.523-7.391 15.914-15.914 15.914h-98.879a25.464 25.464 0 0 1-25.57-25.57V521.664h-27.848c-29.551 0-43.758-35.232-23.301-56.256l225.605-225.605c13.07-13.07 33.526-13.07 46.597 0l225.605 225.605c20.456 20.457 6.253 56.256-23.301 56.256z"/></svg>