<?xml version="1.0" encoding="UTF-8"?><svg id="a" xmlns="http://www.w3.org/2000/svg" viewBox="0 0 512 512"><defs><style>.b{fill:#1d467d;}</style></defs><path class="b" d="M435.11,14.46l-261.33,.83C40.5,15.7,11.55,138.57,10.19,143.5c-1.47,4.92-5.65,24.85-5.95,26.29-.4,1.42,.12,2.1,1.41,.72,1.35-1.44,18.43-19.67,18.43-19.67,.4-.5,48.68-51.41,122.63-51.61l211.05-.64c8.03-.03,13.94,2.13,17.43,6.68,6.93,9.02,2.8,24.96-1.39,41.92-1.05,4.1-46.68,214.68-46.68,214.68-17.17,68.69-95.09,68.93-120.78,68.99l-7.35,.06s56.87-266.5,57.05-267.68c.2-1.17-.9-1.72-2.04-1.6-1.11,.12-8.42,.92-8.42,.92-59.94,6.65-115.19,55.96-128.46,114.73l-35.51,153.93c-14.54-.1-30.48-.46-44.07-1.86-8.2-.85-33.68-5.25-35.6-5.58-1.84-.39-2.45,.54-1.45,1.99,.99,1.48,8.11,12.54,8.11,12.54,23.41,34.33,61.21,54.79,108.02,57.24,46.74,2.51,81.24,1.24,114.85,1.75,97.69,1.32,190.06,.9,216.91-112.79l61.17-274.28c5.86-25.93,1.13-50.23-13.21-68.35-13.84-17.56-36.03-27.52-61.23-27.43"/></svg>